# xmcd CD database file
#
# Track frame offsets:
#	150
#	22637
#	33757
#	50255
#	68535
#	86420
#	102130
#	122052
#	145132
#	160415
#
# Disc length: 2374 seconds
#
# Revision: 3
# Processed by: cddbd v1.5.2PL0 Copyright (c) Steve Scherf et al.
# Submitted via: CDex 1.70beta2
#
DISCID=6d09440a
DTITLE=wyse - the Answer in the Answers
DYEAR=2001
DGENRE=Rock
TTITLE0=You gotta be
TTITLE1="No Face"man
TTITLE2=Double
TTITLE3=譲りたくはない想い
TTITLE4=edge
TTITLE5=幻想と妄想の霧
TTITLE6=SCREEN [A nihilist's view]
TTITLE7=Salt water
TTITLE8=3 years later, I...
TTITLE9=微笑む事からはじめよう
EXTD=YEAR: 2001
EXTT0=
EXTT1=
EXTT2=
EXTT3=
EXTT4=
EXTT5=
EXTT6=
EXTT7=
EXTT8=
EXTT9=
PLAYORDER=
